<svg xmlns="http://www.w3.org/2000/svg" width="128" height="41" viewBox="0 0 128 41" fill="none"><path d="M37.966 32.3269C36.338 32.3269 34.853 31.9749 33.511 31.2709C32.191 30.5449 31.135 29.5439 30.343 28.2679C29.573 26.9699 29.188 25.4739 29.188 23.7799C29.188 22.0419 29.584 20.5349 30.376 19.2589C31.168 17.9829 32.235 16.9929 33.577 16.2889C34.941 15.5629 36.481 15.1999 38.197 15.1999C40.089 15.1999 41.607 15.5849 42.751 16.3549C43.917 17.1029 44.764 18.1259 45.292 19.4239C45.82 20.7219 46.084 22.1739 46.084 23.7799C46.084 24.7479 45.93 25.7379 45.622 26.7499C45.314 27.7399 44.841 28.6639 44.203 29.5219C43.565 30.3579 42.729 31.0399 41.695 31.5679C40.661 32.0739 39.418 32.3269 37.966 32.3269ZM39.352 29.0269C40.65 29.0269 41.772 28.8069 42.718 28.3669C43.664 27.9269 44.39 27.3109 44.896 26.5189C45.402 25.7269 45.655 24.8139 45.655 23.7799C45.655 22.6579 45.391 21.7119 44.863 20.9419C44.357 20.1499 43.631 19.5559 42.685 19.1599C41.761 18.7419 40.65 18.5329 39.352 18.5329C37.526 18.5329 36.107 19.0169 35.095 19.9849C34.083 20.9309 33.577 22.1959 33.577 23.7799C33.577 24.8359 33.819 25.7599 34.303 26.5519C34.787 27.3219 35.458 27.9269 36.316 28.3669C37.196 28.8069 38.208 29.0269 39.352 29.0269ZM45.655 15.5629H49.945V31.9639H45.952C45.952 31.9639 45.919 31.7549 45.853 31.3369C45.809 30.8969 45.765 30.3469 45.721 29.6869C45.677 29.0269 45.655 28.3779 45.655 27.7399V15.5629ZM62.0117 29.4559C60.2297 29.4559 58.6567 29.1919 57.2927 28.6639C55.9507 28.1139 54.9057 27.3109 54.1577 26.2549C53.4097 25.1989 53.0357 23.9229 53.0357 22.4269C53.0357 20.9529 53.3987 19.6769 54.1247 18.5989C54.8507 17.5209 55.8847 16.6849 57.2267 16.0909C58.5907 15.4969 60.1857 15.1999 62.0117 15.1999C62.5177 15.1999 63.0017 15.2329 63.4637 15.2989C63.9477 15.3649 64.4207 15.4529 64.8827 15.5629L73.1657 15.5959V18.8299C72.0437 18.8519 70.8997 18.7199 69.7337 18.4339C68.5897 18.1259 67.5777 17.7959 66.6977 17.4439L66.5987 17.2129C67.3467 17.5649 68.0507 18.0049 68.7107 18.5329C69.3707 19.0389 69.8987 19.6329 70.2947 20.3149C70.7127 20.9749 70.9217 21.7449 70.9217 22.6249C70.9217 24.0549 70.5587 25.2869 69.8327 26.3209C69.1067 27.3329 68.0727 28.1139 66.7307 28.6639C65.4107 29.1919 63.8377 29.4559 62.0117 29.4559ZM67.5227 38.7289V37.9369C67.5227 36.9249 67.1927 36.2209 66.5327 35.8249C65.8947 35.4289 65.0147 35.2309 63.8927 35.2309H58.7777C57.7877 35.2309 56.9517 35.1539 56.2697 34.9999C55.6097 34.8459 55.0817 34.6259 54.6857 34.3399C54.2897 34.0539 54.0037 33.7129 53.8277 33.3169C53.6517 32.9429 53.5637 32.5359 53.5637 32.0959C53.5637 31.2159 53.8497 30.5559 54.4217 30.1159C54.9937 29.6539 55.7637 29.3459 56.7317 29.1919C57.6997 29.0379 58.7667 29.0049 59.9327 29.0929L62.0117 29.4559C60.6257 29.4999 59.5917 29.6209 58.9097 29.8189C58.2497 29.9949 57.9197 30.3579 57.9197 30.9079C57.9197 31.2379 58.0517 31.5019 58.3157 31.6999C58.5797 31.8759 58.9537 31.9639 59.4377 31.9639H64.8167C66.2907 31.9639 67.5447 32.1179 68.5787 32.4259C69.6347 32.7559 70.4377 33.2949 70.9877 34.0429C71.5377 34.8129 71.8127 35.8579 71.8127 37.1779V38.7289H67.5227ZM62.0117 26.3539C62.9577 26.3539 63.7827 26.1999 64.4867 25.8919C65.2127 25.5839 65.7737 25.1439 66.1697 24.5719C66.5657 23.9779 66.7637 23.2739 66.7637 22.4599C66.7637 21.6239 66.5657 20.9089 66.1697 20.3149C65.7737 19.7209 65.2237 19.2699 64.5197 18.9619C63.8157 18.6319 62.9797 18.4669 62.0117 18.4669C61.0657 18.4669 60.2297 18.6319 59.5037 18.9619C58.7777 19.2699 58.2167 19.7209 57.8207 20.3149C57.4247 20.9089 57.2267 21.6239 57.2267 22.4599C57.2267 23.2739 57.4247 23.9779 57.8207 24.5719C58.2167 25.1439 58.7667 25.5839 59.4707 25.8919C60.1967 26.1999 61.0437 26.3539 62.0117 26.3539ZM75.9673 15.5629H80.2573V31.9639H75.9673V15.5629ZM86.5603 19.0939C85.3283 19.0939 84.2613 19.3359 83.3593 19.8199C82.4573 20.2819 81.7313 20.8539 81.1813 21.5359C80.6313 22.2179 80.2463 22.8779 80.0263 23.5159L79.9933 21.7009C80.0153 21.4369 80.1033 21.0519 80.2573 20.5459C80.4113 20.0179 80.6423 19.4569 80.9503 18.8629C81.2583 18.2469 81.6653 17.6639 82.1713 17.1139C82.6773 16.5419 83.2933 16.0799 84.0193 15.7279C84.7453 15.3759 85.5923 15.1999 86.5603 15.1999V19.0939ZM94.1294 8.36887V12.1309H89.1464V8.36887H94.1294ZM89.4764 15.5629H93.7664V31.9639H89.4764V15.5629ZM98.3725 8.96287H102.663V31.9639H98.3725V8.96287ZM121.95 26.5189H126.108C125.932 27.6409 125.459 28.6419 124.689 29.5219C123.941 30.4019 122.918 31.0949 121.62 31.6009C120.322 32.1069 118.738 32.3599 116.868 32.3599C114.778 32.3599 112.93 32.0299 111.324 31.3699C109.718 30.6879 108.464 29.7089 107.562 28.4329C106.66 27.1569 106.209 25.6169 106.209 23.8129C106.209 22.0089 106.649 20.4689 107.529 19.1929C108.409 17.8949 109.63 16.9049 111.192 16.2229C112.776 15.5409 114.624 15.1999 116.736 15.1999C118.892 15.1999 120.685 15.5409 122.115 16.2229C123.545 16.9049 124.601 17.9389 125.283 19.3249C125.987 20.6889 126.284 22.4379 126.174 24.5719H110.532C110.642 25.4079 110.95 26.1669 111.456 26.8489C111.984 27.5309 112.688 28.0699 113.568 28.4659C114.47 28.8619 115.537 29.0599 116.769 29.0599C118.133 29.0599 119.266 28.8289 120.168 28.3669C121.092 27.8829 121.686 27.2669 121.95 26.5189ZM116.538 18.4669C114.954 18.4669 113.667 18.8189 112.677 19.5229C111.687 20.2049 111.049 21.0519 110.763 22.0639H121.917C121.807 20.9639 121.279 20.0949 120.333 19.4569C119.409 18.7969 118.144 18.4669 116.538 18.4669Z" fill="white"></path><g clip-path="url(#clip0_380_86)"><path d="M22.2253 3.06393C9.30477 8.68418 5.235 16.9976 10.016 28.0067C3.70794 20.5564 1.6124 10.3454 4.46433 0.963867C-0.737648 8.59256 -1.44647 18.4829 2.61379 26.7963C6.67405 35.1073 14.8612 40.5323 24.0021 40.9663C18.7835 38.912 14.7232 34.6299 12.906 29.2628C11.0887 23.8933 11.7024 17.9862 14.5805 13.1182C12.4183 18.0344 12.2257 23.2978 14.0001 28.9108C22.3299 23.6426 25.2509 18.0103 22.7581 12.0139C20.7506 7.91986 20.5745 4.93734 22.2253 3.06393Z" fill="#107634"></path></g><defs><clipPath id="clip0_380_86"><rect width="24" height="40" fill="white" transform="translate(0 0.963867)"></rect></clipPath></defs></svg>