<svg width="83" height="76" viewBox="0 0 83 76" fill="none" xmlns="http://www.w3.org/2000/svg">
<circle cx="38" cy="38" r="38" fill="#EEEEEE"/>
<g clip-path="url(#clip0_1291_4025)">
<path d="M79.8775 16.0051C79.6169 16.0322 73.6734 16.7109 70.9931 20.6183C68.4443 17.3416 63.1562 17.2888 62.93 17.2875H62.9275C62.4923 17.2875 62.1099 17.5728 61.9857 17.9896C61.9193 18.2097 60.407 23.4006 62.9263 26.7769C64.9009 29.424 68.5734 30.0314 70.2689 30.1703C70.4853 30.8969 70.6747 31.3703 70.7029 31.4355C70.8554 31.8019 71.2132 32.0416 71.6116 32.0416C71.646 32.0416 71.6804 32.0392 71.7148 32.0367C71.9841 32.0084 78.3308 31.2953 80.8648 27.0338C83.4001 22.7711 80.9939 16.8547 80.8907 16.6051C80.721 16.2056 80.3103 15.9609 79.8775 16.0051ZM69.589 25.0974C69.0775 24.4445 68.5452 23.8113 67.9907 23.2039C67.3476 22.5019 66.6652 21.8195 65.962 21.1752L64.6341 22.626C65.2956 23.231 65.9361 23.8728 66.5398 24.5318C67.5443 25.6371 68.4677 26.815 69.3013 28.0543C67.7829 27.7875 65.6558 27.1469 64.5038 25.6002C63.0579 23.6625 63.4193 20.6834 63.6948 19.3027C65.0964 19.4379 68.0509 19.9506 69.4993 21.8908C69.6911 22.1515 69.8521 22.433 69.9788 22.7306C69.7525 23.5015 69.6222 24.2969 69.589 25.0974ZM79.173 26.0306C77.9288 28.1232 75.3579 29.1633 73.5345 29.6613C75.0099 26.558 76.73 23.5765 78.6763 20.7449L77.0546 19.631C75.1058 22.4687 73.3771 25.4527 71.8833 28.5547C71.4702 26.7166 71.2095 24.0474 72.4181 22.015C73.9943 19.3629 77.7234 18.3879 79.3279 18.083C79.8284 19.6359 80.7554 23.3687 79.173 26.0306Z" fill="black"/>
<path d="M81.2397 70.3792C82.2147 68.7292 82.227 66.6821 81.2729 65.0198L70.5553 46.0977L68.8438 47.0665L79.5614 65.9886C80.4897 67.6276 79.913 69.7091 78.2741 70.6386C77.7614 70.9288 77.1823 71.0813 76.5934 71.0813H57.429V69.114C57.429 68.5706 56.9889 68.1304 56.4454 68.1304C56.293 68.1304 56.1417 68.1661 56.0053 68.2337L50.1036 71.1845C49.618 71.428 49.4212 72.0182 49.6635 72.505C49.7581 72.6956 49.913 72.8493 50.1036 72.9452L56.0053 75.896C56.4909 76.1395 57.0823 75.9415 57.3245 75.4559C57.3934 75.3194 57.4278 75.1681 57.4278 75.0157V73.0485H76.5921C78.5089 73.0608 80.2844 72.0403 81.2397 70.3792ZM55.4618 73.4247L52.7434 72.0661L55.4618 70.7075V73.4247Z" fill="black"/>
<path d="M26.379 73.0483H47.5929V71.0811H26.379C24.4954 71.0811 22.9684 69.554 22.9684 67.6692C22.9684 67.0803 23.1208 66.5012 23.411 65.9885L33.1757 48.7495L34.8897 49.7233C35.3618 49.9913 35.9618 49.8266 36.2311 49.3545C36.3061 49.2217 36.3503 49.0729 36.3577 48.9204L36.7081 42.3315C36.7376 41.7893 36.3208 41.3258 35.7786 41.2963C35.5659 41.2852 35.3544 41.343 35.1774 41.461L29.6962 45.1348C29.245 45.4372 29.1245 46.0483 29.4257 46.4995C29.5106 46.6262 29.6237 46.7319 29.7577 46.8069L31.4643 47.777L21.6995 65.0196C20.2352 67.604 21.1438 70.8856 23.7282 72.3499C24.5372 72.8073 25.4495 73.0483 26.379 73.0483ZM34.6401 44.1918L34.479 47.2274L32.1147 45.8848L34.6401 44.1918Z" fill="black"/>
<path d="M68.2575 36.3186C67.9587 36.1551 67.596 36.1588 67.2997 36.326L65.5747 37.3059L56.1665 20.6952C54.7034 18.1108 51.4218 17.2022 48.8374 18.6665C47.9903 19.1461 47.2882 19.8481 46.8087 20.6952L36.3936 39.0788L38.105 40.0477L48.519 21.6641C49.4472 20.0251 51.5288 19.4497 53.1677 20.378C53.705 20.6829 54.1501 21.1268 54.4538 21.6641L63.8645 38.2772L62.1677 39.2411C61.6956 39.5092 61.5296 40.1092 61.7989 40.5825C61.8739 40.7153 61.9796 40.8284 62.1063 40.9145L67.5874 44.5883C68.0386 44.8907 68.6497 44.7702 68.9522 44.319C69.0714 44.142 69.1292 43.9317 69.1169 43.7178L68.7677 37.1288C68.7493 36.7883 68.5563 36.4821 68.2575 36.3186ZM64.5235 40.1657L66.8866 38.8231L67.0477 41.8588L64.5235 40.1657Z" fill="black"/>
<path d="M49.698 61.2468H53.2746C53.8181 61.2468 54.2582 60.8066 54.2582 60.2632V59.0177C54.7193 58.8689 55.1681 58.682 55.5996 58.4607L56.4824 59.3435C56.866 59.7271 57.4894 59.7283 57.873 59.3435L60.4021 56.8144C60.7857 56.4308 60.7869 55.8074 60.4021 55.4238L59.5193 54.541C59.7406 54.1095 59.9275 53.6619 60.0763 53.1996H61.3217C61.8652 53.1996 62.3054 52.7595 62.3054 52.216V48.6394C62.3054 48.0959 61.8652 47.6558 61.3217 47.6558H60.0763C59.9275 47.1947 59.7406 46.7459 59.5193 46.3144L60.4021 45.4316C60.7857 45.048 60.7869 44.4246 60.4021 44.041L57.873 41.5119C57.4894 41.1283 56.866 41.1271 56.4824 41.5119L55.5996 42.3947C55.1681 42.1734 54.7205 41.9865 54.2582 41.8377V40.591C54.2582 40.0476 53.8181 39.6074 53.2746 39.6074H49.698C49.1545 39.6074 48.7144 40.0476 48.7144 40.591V41.8365C48.2533 41.9853 47.8045 42.1722 47.373 42.3935L46.4902 41.5107C46.1066 41.1271 45.4832 41.1259 45.0996 41.5107L42.5705 44.0398C42.1869 44.4234 42.1857 45.0468 42.5705 45.4304L43.4533 46.3132C43.232 46.7447 43.0451 47.1923 42.8963 47.6546H41.6508C41.1074 47.6546 40.6672 48.0947 40.6672 48.6382V52.2148C40.6672 52.7582 41.1074 53.1984 41.6508 53.1984H42.8963C43.0451 53.6595 43.232 54.1082 43.4533 54.5398L42.5705 55.4226C42.1869 55.8062 42.1857 56.4296 42.5705 56.8132L45.0996 59.3423C45.4832 59.7259 46.1066 59.7271 46.4902 59.3423L47.373 58.4595C47.8045 58.6808 48.2521 58.8677 48.7144 59.0164V60.2632C48.7144 60.8066 49.1545 61.2468 49.698 61.2468ZM48.2435 56.6951C47.5181 56.3066 46.6242 56.4345 46.039 57.0123L45.7955 57.2558L44.657 56.1173L44.9004 55.8738C45.4783 55.2873 45.6062 54.3947 45.2176 53.6693C45.0332 53.314 44.8795 52.9439 44.7578 52.5627C44.5193 51.7771 43.7963 51.2373 42.975 51.2312H42.6332V49.6218H42.975C43.7963 49.6156 44.5181 49.0759 44.7578 48.2902C44.8795 47.9091 45.0332 47.539 45.2176 47.1837C45.6062 46.4582 45.4771 45.5644 44.9004 44.9791L44.657 44.7357L45.7955 43.5972L46.039 43.8406C46.6242 44.4185 47.5181 44.5476 48.2435 44.1578C48.5988 43.9734 48.9689 43.8197 49.35 43.698C50.1357 43.4595 50.6754 42.7365 50.6816 41.9152V41.5746H52.291V41.9164C52.2972 42.7377 52.8369 43.4595 53.6226 43.6992C54.0037 43.8209 54.3738 43.9746 54.7291 44.1591C55.4545 44.5476 56.3484 44.4185 56.9336 43.8418L57.1771 43.5984L58.3156 44.7369L58.0722 44.9804C57.4943 45.5668 57.3664 46.4595 57.7549 47.1849C57.9394 47.5402 58.0931 47.9103 58.2148 48.2914C58.4533 49.0771 59.1763 49.6168 59.9976 49.623H60.3394V51.2324H59.9976C59.1763 51.2386 58.4545 51.7783 58.2148 52.564C58.0931 52.9451 57.9394 53.3152 57.7549 53.6705C57.3664 54.3959 57.4955 55.2898 58.0722 55.875L58.3156 56.1185L57.1771 57.257L56.9336 57.0136C56.3484 56.4357 55.4545 56.3066 54.7291 56.6964C54.3738 56.8808 54.0037 57.0345 53.6226 57.1562C52.8369 57.3947 52.2972 58.1177 52.291 58.939V59.2796H50.6816V58.9377C50.6754 58.1164 50.1357 57.3947 49.35 57.155C48.9689 57.0332 48.5988 56.8796 48.2435 56.6951Z" fill="black"/>
<path d="M56.8956 50.4255C56.8956 47.4378 54.4735 45.0156 51.4858 45.0156C48.4981 45.0156 46.0759 47.4378 46.0759 50.4255C46.0759 53.4132 48.4981 55.8353 51.4858 55.8353C54.4722 55.8316 56.8931 53.4119 56.8956 50.4255ZM48.0431 50.4255C48.0431 48.5246 49.5849 46.9828 51.4858 46.9828C53.3866 46.9828 54.9284 48.5246 54.9284 50.4255C54.9284 52.3263 53.3866 53.8681 51.4858 53.8681C49.5862 53.8656 48.0456 52.3263 48.0431 50.4255Z" fill="black"/>
</g>
<defs>
<clipPath id="clip0_1291_4025">
<rect width="61.0205" height="60" fill="white" transform="translate(21 16)"/>
</clipPath>
</defs>
</svg>
