<svg width="77" height="76" viewBox="0 0 77 76" fill="none" xmlns="http://www.w3.org/2000/svg">
<circle cx="38" cy="38" r="38" fill="#EEEEEE"/>
<g clip-path="url(#clip0_1291_3995)">
<path d="M56.8897 38.0388L54.2858 40.6427C53.9425 40.986 53.9425 41.5427 54.2858 41.886C54.4569 42.0571 54.6819 42.1438 54.9069 42.1438C55.1319 42.1438 55.3569 42.0583 55.528 41.886L58.1319 39.2821C58.4753 38.9388 58.4753 38.3821 58.1319 38.0388C57.7886 37.6954 57.2331 37.6954 56.8897 38.0388Z" fill="black"/>
<path d="M63.9071 36.2302L59.4926 40.6446C59.1493 40.988 59.1493 41.5446 59.4926 41.888C59.6637 42.0591 59.8899 42.1458 60.1137 42.1458C60.3375 42.1458 60.5637 42.0603 60.7348 41.888L65.1493 37.4735C65.4926 37.1302 65.4926 36.5735 65.1493 36.2302C64.8071 35.8868 64.2504 35.8868 63.9071 36.2302Z" fill="black"/>
<path d="M39.1325 38.0388C38.7892 38.3821 38.7892 38.9388 39.1325 39.2821L41.7364 41.886C41.9075 42.0571 42.1325 42.1438 42.3575 42.1438C42.5825 42.1438 42.8075 42.0583 42.9786 41.886C43.322 41.5427 43.322 40.986 42.9786 40.6427L40.3747 38.0388C40.0325 37.6954 39.4759 37.6954 39.1325 38.0388Z" fill="black"/>
<path d="M32.1141 37.4716L36.5286 41.886C36.6997 42.0571 36.9247 42.1438 37.1497 42.1438C37.3747 42.1438 37.5997 42.0583 37.7708 41.886C38.1141 41.5427 38.1141 40.986 37.7708 40.6427L33.3563 36.2282C33.0129 35.8849 32.4563 35.8849 32.1129 36.2282C31.7708 36.5716 31.7708 37.1282 32.1141 37.4716Z" fill="black"/>
<path d="M66.116 27.3008C66.6011 27.3008 66.9949 26.907 66.9949 26.4219V25.2383C66.9949 24.7531 66.6011 24.3594 66.116 24.3594C65.6308 24.3594 65.2371 24.7531 65.2371 25.2383V26.4219C65.2371 26.907 65.6308 27.3008 66.116 27.3008Z" fill="black"/>
<path d="M67.6196 28.8027H68.8032C69.2884 28.8027 69.6821 28.409 69.6821 27.9238C69.6821 27.4387 69.2884 27.0449 68.8032 27.0449H67.6196C67.1345 27.0449 66.7407 27.4387 66.7407 27.9238C66.7407 28.409 67.1345 28.8027 67.6196 28.8027Z" fill="black"/>
<path d="M66.116 31.4902C66.6011 31.4902 66.9949 31.0965 66.9949 30.6113V29.4277C66.9949 28.9426 66.6011 28.5488 66.116 28.5488C65.6308 28.5488 65.2371 28.9426 65.2371 29.4277V30.6113C65.2371 31.0965 65.6308 31.4902 66.116 31.4902Z" fill="black"/>
<path d="M63.4302 28.8027H64.6138C65.0989 28.8027 65.4927 28.409 65.4927 27.9238C65.4927 27.4387 65.0989 27.0449 64.6138 27.0449H63.4302C62.945 27.0449 62.5513 27.4387 62.5513 27.9238C62.5513 28.409 62.945 28.8027 63.4302 28.8027Z" fill="black"/>
<path d="M33.2788 18.9414C33.764 18.9414 34.1577 18.5477 34.1577 18.0625V16.8789C34.1577 16.3938 33.764 16 33.2788 16C32.7937 16 32.3999 16.3938 32.3999 16.8789V18.0625C32.3999 18.5477 32.7937 18.9414 33.2788 18.9414Z" fill="black"/>
<path d="M30.593 20.4453H31.7766C32.2618 20.4453 32.6555 20.0516 32.6555 19.5664C32.6555 19.0813 32.2618 18.6875 31.7766 18.6875H30.593C30.1079 18.6875 29.7141 19.0813 29.7141 19.5664C29.7141 20.0516 30.1067 20.4453 30.593 20.4453Z" fill="black"/>
<path d="M34.1577 22.252V21.0684C34.1577 20.5832 33.764 20.1895 33.2788 20.1895C32.7937 20.1895 32.3999 20.5832 32.3999 21.0684V22.252C32.3999 22.7371 32.7937 23.1309 33.2788 23.1309C33.7651 23.132 34.1577 22.7383 34.1577 22.252Z" fill="black"/>
<path d="M34.7825 20.4453H35.9661C36.4512 20.4453 36.845 20.0516 36.845 19.5664C36.845 19.0813 36.4512 18.6875 35.9661 18.6875H34.7825C34.2973 18.6875 33.9036 19.0813 33.9036 19.5664C33.9036 20.0516 34.2973 20.4453 34.7825 20.4453Z" fill="black"/>
<path d="M76.0078 35.1985L73.8773 33.0681C73.5339 32.7247 72.9773 32.7247 72.6339 33.0681L60.58 45.122H36.6855L24.6316 33.0681C24.2882 32.7247 23.7316 32.7247 23.3882 33.0681L21.2578 35.1985C20.9144 35.5419 20.9144 36.0985 21.2578 36.4419L31.1812 46.3653V71.372C31.1812 71.8571 31.575 72.2509 32.0601 72.2509C32.5453 72.2509 32.939 71.8571 32.939 71.372V46.8798H45.3867V74.2431H32.9378V70.8024C32.9378 70.3173 32.5441 69.9235 32.0589 69.9235C31.5738 69.9235 31.18 70.3173 31.18 70.8024V75.122C31.18 75.6071 31.5738 76.0009 32.0589 76.0009H65.2054C65.6906 76.0009 66.0843 75.6071 66.0843 75.122V55.9091C66.0843 55.4239 65.6906 55.0302 65.2054 55.0302C64.7203 55.0302 64.3265 55.4239 64.3265 55.9091V74.2431H51.8789V46.8798H64.3265V56.4728C64.3265 56.9579 64.7203 57.3517 65.2054 57.3517C65.6906 57.3517 66.0843 56.9579 66.0843 56.4728V46.3653L76.0078 36.4419C76.3511 36.0985 76.3511 35.5419 76.0078 35.1985ZM24.0093 34.9325L34.1988 45.122H32.4234L23.121 35.8208L24.0093 34.9325ZM50.121 74.2431H47.1433V46.8798H50.121V74.2431ZM64.841 45.122H63.0656L73.255 34.9325L74.1433 35.8208L64.841 45.122Z" fill="black"/>
<path d="M49.4215 31.3887H47.6063C46.9161 31.3887 46.3547 30.8273 46.3547 30.1371C46.3547 29.652 45.961 29.2582 45.4758 29.2582C44.9907 29.2582 44.5969 29.652 44.5969 30.1371C44.5969 31.7965 45.9469 33.1465 47.6063 33.1465H47.754V34.6348C47.754 35.1199 48.1477 35.5137 48.6329 35.5137C49.118 35.5137 49.5118 35.1199 49.5118 34.6348V33.1441C51.2602 33.0961 52.6688 31.6605 52.6688 29.9004C52.6688 28.1098 51.2122 26.6543 49.4227 26.6543H47.8442C47.0227 26.6543 46.3559 25.9863 46.3559 25.166C46.3559 24.3457 47.0239 23.6777 47.8442 23.6777H49.6594C50.3497 23.6777 50.911 24.2391 50.911 24.9293C50.911 25.4145 51.3047 25.8082 51.7899 25.8082C52.275 25.8082 52.6688 25.4145 52.6688 24.9293C52.6688 23.2699 51.3188 21.9199 49.6594 21.9199H49.5118V20.4316C49.5118 19.9465 49.118 19.5527 48.6329 19.5527C48.1477 19.5527 47.754 19.9465 47.754 20.4316V21.9223C46.0055 21.9703 44.5969 23.407 44.5969 25.166C44.5969 26.9566 46.0536 28.4121 47.843 28.4121H49.4215C50.243 28.4121 50.9098 29.0801 50.9098 29.9004C50.9098 30.7207 50.243 31.3887 49.4215 31.3887Z" fill="black"/>
<path d="M48.6327 39.066C54.9925 39.066 60.1651 33.8922 60.1651 27.5336C60.1651 21.1738 54.9913 16 48.6327 16C46.337 16 44.1198 16.6727 42.2202 17.9453C41.8171 18.216 41.7093 18.7609 41.9788 19.1641C42.2483 19.5672 42.7956 19.675 43.1976 19.4055C44.8077 18.3273 46.6862 17.7578 48.6327 17.7578C54.0222 17.7578 58.4073 22.143 58.4073 27.5336C58.4073 32.9242 54.0222 37.3082 48.6327 37.3082C43.2433 37.3082 38.8569 32.923 38.8569 27.5336C38.8569 25.5789 39.4323 23.6922 40.5198 22.0773C40.7917 21.6742 40.6851 21.1281 40.2819 20.8574C39.8788 20.5867 39.3327 20.6922 39.062 21.0953C37.7776 23.0008 37.0991 25.2273 37.0991 27.5336C37.0991 33.8922 42.2729 39.066 48.6327 39.066Z" fill="black"/>
</g>
<defs>
<clipPath id="clip0_1291_3995">
<rect width="55.2645" height="60" fill="white" transform="translate(21 16)"/>
</clipPath>
</defs>
</svg>
