<svg width="87" height="82" viewBox="0 0 87 82" fill="none" xmlns="http://www.w3.org/2000/svg">
<circle cx="38" cy="38" r="38" fill="#EEEEEE"/>
<g clip-path="url(#clip0_268_2792)">
<path d="M86.3353 30.2077C86.3353 30.2 86.334 30.1935 86.334 30.1857C86.3327 30.1572 86.3314 30.1287 86.3275 30.1002C86.3262 30.0898 86.3249 30.0795 86.3223 30.0691C86.3184 30.0432 86.3132 30.0173 86.308 29.9927C86.3055 29.9823 86.3029 29.9732 86.3003 29.9629C86.2925 29.9357 86.2847 29.9084 86.2744 29.8825C86.2731 29.8773 86.2718 29.8722 86.2692 29.867L83.6339 23.1194C83.3683 22.4392 82.7257 22 81.9949 22H77.196C76.6725 22 76.2489 22.4237 76.2489 22.9471C76.2489 23.4705 76.6725 23.8942 77.196 23.8942H81.9042L84.0018 29.2645H64.1685L62.9261 23.8942H78.0239C78.5473 23.8942 78.971 23.4705 78.971 22.9471C78.971 22.4237 78.5473 22 78.0239 22H61.7341H52.1893H31.9297C31.199 22 30.5564 22.4392 30.2908 23.1194L27.6542 29.867C27.6529 29.8722 27.6516 29.8773 27.649 29.8825C27.6386 29.9084 27.6309 29.9357 27.6231 29.9629C27.6205 29.9732 27.6179 29.9823 27.6153 29.9927C27.6088 30.0173 27.605 30.0432 27.6011 30.0691C27.5998 30.0795 27.5972 30.0898 27.5959 30.1002C27.592 30.1287 27.5907 30.1572 27.5907 30.1857C27.5907 30.1935 27.5894 30.2 27.5894 30.2077C27.5894 30.209 27.5894 30.2103 27.5894 30.2116V44.1278C27.5894 44.6513 28.0131 45.0749 28.5365 45.0749C29.0599 45.0749 29.4836 44.6513 29.4836 44.1278V31.1587H49.5618V45.5569C49.5618 46.1205 49.8934 46.6336 50.4065 46.8642C50.5944 46.9484 50.7952 46.9899 50.9934 46.9899C51.3381 46.9899 51.6775 46.8668 51.9444 46.6297L56.961 42.1857L61.9777 46.6297C62.3987 47.0028 63.0025 47.0948 63.5169 46.8642C64.0299 46.6336 64.3616 46.1205 64.3616 45.5569V31.1587H84.4398V73.6446C84.4398 74.3248 83.8865 74.878 83.2063 74.878H65.8399C65.8399 74.8676 65.8386 74.856 65.8386 74.8456C65.8373 74.7601 65.8347 74.6759 65.8269 74.5917C67.4581 75.0244 69.2007 74.1861 69.8537 72.5835C70.1971 71.74 70.1919 70.8136 69.8395 69.9754C69.8058 69.8964 69.7695 69.8199 69.7306 69.7435C69.7242 69.7292 69.7164 69.7163 69.7099 69.702C69.6723 69.6295 69.6309 69.5595 69.5894 69.4908C69.5816 69.4779 69.5726 69.4649 69.5635 69.452C69.5181 69.382 69.4715 69.312 69.4223 69.246C69.421 69.2447 69.4197 69.2434 69.4197 69.2421C69.3704 69.176 69.3173 69.1138 69.2642 69.0516C69.2538 69.0399 69.2448 69.0296 69.2344 69.0179C69.1813 68.9583 69.1256 68.9013 69.0673 68.8456C69.0556 68.8352 69.0452 68.8236 69.0336 68.8132C68.974 68.7562 68.9118 68.7018 68.847 68.65C68.8444 68.6487 68.8431 68.6461 68.8405 68.6448C68.7771 68.5943 68.7123 68.545 68.6449 68.4997C68.6332 68.4906 68.6216 68.4828 68.6086 68.4738C68.5413 68.4284 68.4726 68.3857 68.4026 68.3455C68.3961 68.3416 68.391 68.3377 68.3858 68.3351C68.7861 67.9892 69.1023 67.55 69.3083 67.046C69.6516 66.2025 69.6464 65.2762 69.294 64.4379C68.9857 63.7033 68.4415 63.1125 67.747 62.7471C67.6473 62.6953 67.5449 62.6474 67.44 62.6046L52.6972 56.593L59.56 54.4694C61.1925 53.9642 62.1124 52.2228 61.6097 50.5878C61.4218 49.9775 61.05 49.4632 60.5706 49.0862C59.8554 48.5265 58.9006 48.2738 57.9535 48.472C57.9483 48.4733 57.9444 48.4733 57.9405 48.4746C57.8887 48.4863 52.6272 49.6692 47.1325 50.7407C46.8889 50.7886 46.6518 50.8339 46.4173 50.8793C46.2294 50.9156 46.0455 50.9506 45.8641 50.9855C45.8123 50.9959 45.7604 51.005 45.7086 51.0153C45.3886 51.0762 45.0789 51.1345 44.7771 51.1902C44.6553 51.2123 44.5361 51.2356 44.4169 51.2563C37.5164 52.5273 35.5782 52.5506 35.0405 52.4781C35.0379 52.4781 35.0366 52.4781 35.034 52.4768C35.0262 52.4755 35.0172 52.4742 35.0107 52.4729C35.0055 52.4716 35.0003 52.4716 34.9952 52.4703C34.9913 52.469 34.9874 52.469 34.9848 52.469C34.9511 52.4625 34.9252 52.4561 34.9045 52.4509L34.749 52.3874L34.942 51.9132C35.1325 51.4468 35.1299 50.9337 34.9343 50.4699C34.885 50.3533 34.8254 50.2444 34.7568 50.1421C34.5495 49.8363 34.2579 49.5979 33.9081 49.4554L28.8202 47.3811C28.3538 47.1907 27.8408 47.1933 27.3769 47.3889C26.9131 47.5845 26.5529 47.9486 26.3625 48.415L20.1396 63.6709C19.747 64.6336 20.2109 65.7361 21.1735 66.1287L26.2614 68.203C26.4933 68.2976 26.7343 68.3429 26.9701 68.3429C27.7138 68.3429 28.4212 67.8998 28.7192 67.1691L28.7658 67.0538L29.9384 67.5318C29.9384 67.5318 29.9397 67.5331 29.941 67.5331C31.063 67.9905 32.0969 68.6435 32.9908 69.4533C33.1541 69.601 33.3121 69.7525 33.465 69.9106C33.6179 70.0687 33.7669 70.2306 33.9094 70.3978C33.9807 70.4807 34.0519 70.5662 34.1206 70.6517C35.424 72.2777 37.1329 73.5526 39.0634 74.339L40.3836 74.8767H30.7157C30.0355 74.8767 29.4836 74.3235 29.4836 73.6433V71.2464C29.4836 70.723 29.0599 70.2993 28.5365 70.2993C28.0131 70.2993 27.5894 70.723 27.5894 71.2464V73.6433C27.5894 75.3677 28.9926 76.7709 30.717 76.7709H45.0297L57.2318 81.7461C57.6516 81.9171 58.0869 81.9987 58.5145 81.9987C59.8593 81.9987 61.1368 81.198 61.6745 79.8778C61.8947 79.3362 61.966 78.77 61.9064 78.2259C62.5413 78.3166 63.1994 78.2336 63.7954 77.9758C64.4018 77.7141 64.9045 77.2969 65.2608 76.7709H83.2076C84.9321 76.7709 86.3353 75.3677 86.3353 73.6433V30.2116C86.3353 30.2103 86.3353 30.209 86.3353 30.2077ZM52.9433 23.8942H60.9813L62.2238 29.2645H51.7008L52.9433 23.8942ZM49.7561 29.2645H29.9228L32.0204 23.8942H50.9973L49.7561 29.2645ZM62.4687 44.5321L57.9133 40.4962C57.6425 40.2565 57.3031 40.136 56.9636 40.136C56.6242 40.136 56.2847 40.2565 56.0126 40.4962L51.4573 44.5321V31.1587H62.4687V44.5321ZM26.9688 66.4448L21.8978 64.377L28.1128 49.1367L33.1839 51.2045L26.9688 66.4448ZM64.8112 72.1611L63.7242 71.718C63.7242 71.718 63.7229 71.718 63.7229 71.7167H63.7216L52.3992 67.1004C51.9146 66.9035 51.3614 67.1354 51.1644 67.6199C50.9675 68.1045 51.1994 68.6577 51.684 68.8547L63.0064 73.471C63.053 73.4904 63.0997 73.5111 63.1437 73.5344C63.1567 73.5409 63.167 73.5487 63.18 73.5565C63.2111 73.5746 63.2422 73.5914 63.272 73.6109C63.2862 73.62 63.2992 73.6316 63.3134 73.6407C63.3394 73.6588 63.3666 73.6783 63.3912 73.6977C63.4054 73.7093 63.4197 73.7236 63.4339 73.7366C63.456 73.756 63.478 73.7754 63.4987 73.7962C63.513 73.8104 63.5259 73.826 63.5402 73.8415C63.5596 73.8622 63.579 73.8817 63.5972 73.9037C63.6114 73.9205 63.6231 73.9374 63.636 73.9542C63.6529 73.9749 63.6697 73.997 63.684 74.0177C63.6969 74.0358 63.7073 74.0553 63.719 74.0747C63.7319 74.0967 63.7462 74.1175 63.7591 74.1408C63.7708 74.1615 63.7799 74.1823 63.7902 74.203C63.8006 74.225 63.8123 74.247 63.8226 74.2691C63.8317 74.2911 63.8395 74.3131 63.8485 74.3351C63.8576 74.3572 63.8667 74.3792 63.8744 74.4025C63.8822 74.4258 63.8874 74.4491 63.8939 74.4725C63.9004 74.4958 63.9068 74.5178 63.912 74.5411C63.9172 74.5645 63.9211 74.5878 63.925 74.6124C63.9289 74.637 63.934 74.659 63.9379 74.6837C63.9418 74.7083 63.9418 74.7316 63.9444 74.7549C63.947 74.7795 63.9496 74.8028 63.9496 74.8275C63.9509 74.8508 63.9496 74.8754 63.9483 74.8987C63.9483 74.9233 63.9483 74.948 63.947 74.9726C63.9457 74.9959 63.9418 75.0192 63.9392 75.0425C63.9366 75.0685 63.934 75.0931 63.9302 75.1177C63.9263 75.141 63.9211 75.1643 63.9159 75.1864C63.9107 75.2123 63.9055 75.2369 63.8991 75.2628C63.8926 75.2848 63.8848 75.3081 63.8783 75.3302C63.8706 75.3561 63.8628 75.3807 63.8537 75.4053C63.8459 75.4222 63.8382 75.4403 63.8304 75.4571C63.8291 75.461 63.8278 75.4649 63.8265 75.4688C63.6788 75.8108 63.4054 76.0816 63.0491 76.2358C62.6566 76.4055 62.207 76.4107 61.8157 76.2514L59.8101 75.4338C59.801 75.4299 59.792 75.4273 59.7816 75.4235C59.7725 75.4196 59.7635 75.4144 59.7531 75.4105L50.5438 71.6558C50.0593 71.4589 49.5061 71.6908 49.3091 72.1753C49.1122 72.6599 49.3441 73.2131 49.8287 73.4101L59.0379 77.1648C59.0483 77.1686 59.0573 77.1712 59.0677 77.1751C59.0768 77.179 59.0845 77.1842 59.0936 77.1881C59.8658 77.5029 60.2389 78.3891 59.9241 79.1613C59.6093 79.9348 58.7244 80.3066 57.9509 79.9918L45.5777 74.9467C45.5777 74.9467 45.5765 74.9467 45.5765 74.9454L39.7825 72.5822C38.7628 72.1663 37.8157 71.5884 36.98 70.8784C36.4786 70.4522 36.0174 69.978 35.6028 69.4623C35.196 68.9544 34.7477 68.4802 34.267 68.0449C33.2085 67.0875 31.9867 66.3153 30.66 65.7737L29.4849 65.2943L31.8248 59.556L34.0351 54.1339L34.1983 54.2C34.3512 54.2621 34.5715 54.3515 35.1597 54.3736C35.8956 54.4073 37.1135 54.3295 39.2953 54.0225C40.7801 53.8126 42.6004 53.5094 44.7252 53.1181C44.7771 53.109 44.8289 53.0987 44.882 53.0896C44.9818 53.0715 45.0815 53.052 45.1826 53.0339C45.2603 53.0196 45.3394 53.0041 45.4197 52.9899C45.5104 52.973 45.6011 52.9562 45.6918 52.9393C45.7889 52.9212 45.8874 52.903 45.9859 52.8836C46.0649 52.8681 46.1439 52.8538 46.2243 52.8383C46.3448 52.8149 46.4665 52.7916 46.5896 52.7683C46.6531 52.7566 46.7153 52.7437 46.7788 52.732C46.9666 52.6957 47.1571 52.6595 47.3514 52.6206C52.8267 51.5556 58.1115 50.3701 58.3486 50.317C58.372 50.3118 58.3966 50.3092 58.4199 50.3053C59.0288 50.2146 59.6248 50.567 59.7984 51.1345C59.8593 51.3341 59.8671 51.5375 59.8282 51.7292C59.744 52.1503 59.437 52.5144 58.999 52.6504L49.6084 55.5565C49.2262 55.6744 48.9593 56.0203 48.9425 56.4206C48.9256 56.8197 49.1601 57.1876 49.5307 57.3392L66.7235 64.3498C67.0979 64.5027 67.3907 64.7916 67.5475 65.1648C67.7043 65.5379 67.7069 65.9486 67.554 66.323C67.4011 66.6975 67.1122 66.9903 66.7391 67.147C66.5525 67.2248 66.3568 67.265 66.1599 67.2663C66.1573 67.2663 66.1547 67.2663 66.1508 67.2663C66.1042 67.2663 66.0589 67.2649 66.0122 67.2598C65.998 67.2585 65.985 67.2559 65.972 67.2546C65.9371 67.2507 65.9021 67.2468 65.8671 67.239C65.8451 67.2352 65.8231 67.2287 65.801 67.2235C65.7751 67.217 65.7492 67.2118 65.722 67.2041C65.6948 67.1963 65.6689 67.1859 65.643 67.1769C65.6222 67.1691 65.6002 67.1626 65.5795 67.1548L54.2558 62.5373C53.7712 62.3403 53.218 62.5722 53.0211 63.0568C52.8241 63.5414 53.056 64.0946 53.5406 64.2915L67.2677 69.8886C67.3609 69.9261 67.4503 69.9728 67.532 70.0285C67.7794 70.1918 67.9738 70.4237 68.0917 70.7035C68.229 71.03 68.2472 71.385 68.1474 71.7206C68.1331 71.7685 68.1163 71.8152 68.0969 71.8631C68.0774 71.911 68.0554 71.9577 68.0308 72.003C67.9751 72.108 67.9064 72.2025 67.8313 72.2894C67.7846 72.3425 67.7341 72.393 67.6797 72.4383C67.6706 72.4461 67.6628 72.4539 67.6551 72.4604C67.3091 72.7428 66.8479 72.8646 66.3957 72.7739C66.3037 72.7558 66.213 72.7286 66.1236 72.6923L64.8112 72.1611Z" fill="black"/>
</g>
<defs>
<clipPath id="clip0_268_2792">
<rect width="66.3356" height="60" fill="white" transform="translate(20 22)"/>
</clipPath>
</defs>
</svg>
