<svg width="31" height="31" viewBox="0 0 31 31" fill="none" xmlns="http://www.w3.org/2000/svg">
<path d="M3.00244 15.5859C3.00315 18.5626 4.06553 21.4413 5.99864 23.7049C7.93176 25.9684 10.6088 27.4682 13.5487 27.9347V19.1984H10.3774V15.5859H13.5524V12.8359C13.4823 12.1923 13.5548 11.5411 13.7647 10.9286C13.9746 10.3161 14.3168 9.7574 14.767 9.29208C15.2172 8.82675 15.7643 8.46625 16.3695 8.23619C16.9747 8.00613 17.6231 7.91215 18.2687 7.96091C19.2062 7.97591 20.1437 8.05966 21.0687 8.21091V11.2847H19.4887C19.2202 11.2495 18.9471 11.2751 18.6898 11.3596C18.4325 11.4442 18.1975 11.5854 18.0022 11.773C17.8068 11.9606 17.6561 12.1896 17.5611 12.4433C17.4662 12.6969 17.4295 12.9687 17.4537 13.2384V15.5859H20.9174L20.3637 19.1997H17.4537V27.9347C19.8132 27.5618 22.0165 26.5206 23.8026 24.9344C25.5888 23.3482 26.883 21.2834 27.5321 18.9844C28.1812 16.6855 28.158 14.2487 27.4652 11.9626C26.7724 9.67645 25.439 7.6367 23.6229 6.08484C21.8068 4.53298 19.5841 3.534 17.2179 3.20617C14.8517 2.87834 12.4411 3.23539 10.2715 4.23504C8.10192 5.2347 6.26421 6.8351 4.97595 8.84676C3.68768 10.8584 3.00282 13.1971 3.00244 15.5859Z" fill="#939393"/>
</svg>
