<svg width="213" height="38" viewBox="0 0 213 38" fill="none" xmlns="http://www.w3.org/2000/svg">
<path d="M0 36.3354L2.80207 35.8785V13.7056L0 13.2792V12.6091H11.6651C13.8987 12.6091 15.8784 13.1168 17.6043 14.132C19.3505 15.1269 20.711 16.5483 21.6856 18.396C22.6602 20.2235 23.1475 22.3555 23.1475 24.7921C23.1475 27.2286 22.6602 29.3708 21.6856 31.2186C20.711 33.046 19.3505 34.4673 17.6043 35.4826C15.8581 36.4775 13.8784 36.975 11.6651 36.975H0V36.3354ZM11.6651 36.244C13.1474 36.244 14.4571 35.8988 15.5941 35.2085C16.7515 34.5181 17.6551 33.4927 18.3048 32.1323C18.9546 30.7515 19.2795 29.0865 19.2795 27.1373V22.4469C19.2795 20.4976 18.9546 18.8427 18.3048 17.4823C17.6551 16.1219 16.7515 15.0965 15.5941 14.4061C14.4571 13.7158 13.1474 13.3706 11.6651 13.3706H6.15237V36.244H11.6651Z" fill="#333333"/>
<path d="M25.9958 36.975V36.3354L28.7978 35.8785V13.7056L25.9958 13.2792V12.6091H34.9502V13.2792L32.1482 13.7056V35.8785L34.9502 36.3354V36.975H25.9958Z" fill="#333333"/>
<path d="M35.3164 36.975V36.3354L38.3012 35.1171L47.1034 12H47.5907L55.9056 35.8785L58.7076 36.3354V36.975H49.7532V36.3354L52.2507 35.9394L49.6618 28.7211H41.5602L39.0931 35.1171L41.8343 36.3354V36.975H35.3164ZM41.8038 28.0815H49.4486L45.7937 17.3605L41.8038 28.0815Z" fill="#333333"/>
<path d="M71.9489 37.2796L62.8727 13.7056V35.1171L65.7966 36.3354V36.975H59.2787V36.3354L62.1417 35.1171V13.7056L59.3396 13.2792V12.6091H66.0707L73.7155 32.1627L81.5125 12.6091H87.6649V13.2792L84.8628 13.7056V35.8785L87.6649 36.3354V36.975H78.7105V36.3354L81.5125 35.8785V14.6193L72.4972 37.2796H71.9489Z" fill="#333333"/>
<path d="M102.002 37.5841C99.7885 37.5841 97.8088 37.046 96.0625 35.9699C94.3163 34.8937 92.9559 33.3912 91.9813 31.4622C91.0066 29.5129 90.5193 27.2896 90.5193 24.7921C90.5193 22.2946 91.0066 20.0813 91.9813 18.1524C92.9559 16.2031 94.3163 14.6904 96.0625 13.6142C97.8088 12.5381 99.7885 12 102.002 12C104.215 12 106.195 12.5381 107.941 13.6142C109.687 14.6904 111.048 16.2031 112.022 18.1524C112.997 20.0813 113.484 22.2946 113.484 24.7921C113.484 27.2896 112.997 29.5129 112.022 31.4622C111.048 33.3912 109.687 34.8937 107.941 35.9699C106.195 37.046 104.215 37.5841 102.002 37.5841ZM102.002 36.8836C103.464 36.8836 104.773 36.4978 105.931 35.7262C107.108 34.9546 108.032 33.8379 108.702 32.3759C109.372 30.8937 109.707 29.1475 109.707 27.1373V22.4469C109.707 20.4367 109.372 18.7006 108.702 17.2387C108.032 15.7564 107.108 14.6295 105.931 13.8579C104.773 13.0863 103.464 12.7005 102.002 12.7005C100.519 12.7005 99.1997 13.0863 98.0423 13.8579C96.8849 14.6295 95.9712 15.7564 95.3011 17.2387C94.6311 18.7006 94.296 20.4367 94.296 22.4469V27.1373C94.296 29.1475 94.6311 30.8937 95.3011 32.3759C95.9712 33.8379 96.8849 34.9546 98.0423 35.7262C99.1997 36.4978 100.519 36.8836 102.002 36.8836Z" fill="#333333"/>
<path d="M116.448 36.975V36.3354L119.28 35.1171V14.467L116.448 13.2792V12.6091H122.113L135.24 31.0054V14.467L132.407 13.2792V12.6091H138.895V13.2792L136.001 14.467V36.975H135.24L120.042 15.6244V35.1171L122.966 36.3354V36.975H116.448Z" fill="#333333"/>
<path d="M141.162 36.3354L143.964 35.8785V13.7056L141.162 13.2792V12.6091H152.828C155.061 12.6091 157.041 13.1168 158.767 14.132C160.513 15.1269 161.873 16.5483 162.848 18.396C163.823 20.2235 164.31 22.3555 164.31 24.7921C164.31 27.2286 163.823 29.3708 162.848 31.2186C161.873 33.046 160.513 34.4673 158.767 35.4826C157.021 36.4775 155.041 36.975 152.828 36.975H141.162V36.3354ZM152.828 36.244C154.31 36.244 155.619 35.8988 156.757 35.2085C157.914 34.5181 158.818 33.4927 159.467 32.1323C160.117 30.7515 160.442 29.0865 160.442 27.1373V22.4469C160.442 20.4976 160.117 18.8427 159.467 17.4823C158.818 16.1219 157.914 15.0965 156.757 14.4061C155.619 13.7158 154.31 13.3706 152.828 13.3706H147.315V36.244H152.828Z" fill="#333333"/>
<path d="M167.158 36.3354L169.96 35.8785V13.7056L167.158 13.2792V12.6091H176.448C178.641 12.6091 180.387 12.8122 181.686 13.2183C182.986 13.6244 183.93 14.2437 184.519 15.0762C185.108 15.8884 185.402 16.9645 185.402 18.3047C185.402 21.2286 183.554 23.0966 179.859 23.9088V24.0611C182.113 24.3657 183.859 25.0357 185.098 26.0713C186.356 27.1068 186.986 28.5485 186.986 30.3962C186.986 32.6297 186.164 34.2846 184.519 35.3607C182.894 36.4369 180.691 36.975 177.91 36.975H167.158V36.3354ZM176.691 23.8174C178.316 23.8174 179.564 23.3606 180.438 22.4469C181.311 21.5331 181.747 20.2336 181.747 18.5483V18.3656C181.747 15.0356 179.981 13.3706 176.448 13.3706H173.311V23.8174H176.691ZM177.91 36.244C179.636 36.244 180.976 35.7465 181.93 34.7516C182.884 33.7364 183.361 32.2947 183.361 30.4267V30.0916C183.361 28.2439 182.884 26.8632 181.93 25.9494C180.996 25.0357 179.656 24.5789 177.91 24.5789H173.311V36.244H177.91Z" fill="#333333"/>
<path d="M189.852 36.3354L192.655 35.8785V13.7056L189.852 13.2792V12.6091H201.518C203.751 12.6091 205.731 13.1168 207.457 14.132C209.203 15.1269 210.563 16.5483 211.538 18.396C212.513 20.2235 213 22.3555 213 24.7921C213 27.2286 212.513 29.3708 211.538 31.2186C210.563 33.046 209.203 34.4673 207.457 35.4826C205.711 36.4775 203.731 36.975 201.518 36.975H189.852V36.3354ZM201.518 36.244C203 36.244 204.31 35.8988 205.447 35.2085C206.604 34.5181 207.508 33.4927 208.157 32.1323C208.807 30.7515 209.132 29.0865 209.132 27.1373V22.4469C209.132 20.4976 208.807 18.8427 208.157 17.4823C207.508 16.1219 206.604 15.0965 205.447 14.4061C204.31 13.7158 203 13.3706 201.518 13.3706H196.005V36.244H201.518Z" fill="#333333"/>
<path d="M32.389 2.75797L30.2678 0.0483398L28.1482 2.75797H32.389Z" fill="#D2B976"/>
<path d="M35.904 2.75796L33.544 0.427612L33.4082 0.816264L32.7292 2.75796H35.904Z" fill="#D2B976"/>
<path d="M33.3583 0.324657L33.3614 0.318413L33.0914 0.288757L30.4863 0L32.5498 2.63784L33.3583 0.324657Z" fill="#D2B976"/>
<path d="M27.8049 2.75016L27.3851 1.54986L26.9917 0.427612L24.6333 2.75796H27.8081L27.8049 2.75016Z" fill="#D2B976"/>
<path d="M30.0509 0L27.1758 0.318413L27.9874 2.63784L30.0509 0Z" fill="#D2B976"/>
<path d="M27.8705 2.93591C27.8658 2.93591 27.8596 2.93747 27.8549 2.93747H24.6099L29.9995 9.24955L27.8736 2.9484C27.872 2.94528 27.872 2.9406 27.8705 2.93591Z" fill="#D2B976"/>
<path d="M32.6653 2.93591C32.6637 2.9406 32.6637 2.94372 32.6622 2.9484L30.5378 9.24955L35.9275 2.93747H32.6809C32.6762 2.93747 32.6715 2.93591 32.6653 2.93591Z" fill="#D2B976"/>
<path d="M28.092 2.9375L30.2679 9.39005L32.4452 2.9375H28.092Z" fill="#D2B976"/>
</svg>
