<svg width="76" height="83" viewBox="0 0 76 83" fill="none" xmlns="http://www.w3.org/2000/svg">
<circle cx="38" cy="38" r="38" fill="#EEEEEE"/>
<g clip-path="url(#clip0_1291_3978)">
<path d="M62.104 23H28.0856C27.6005 23 27.2067 23.3938 27.2067 23.8789C27.2067 24.3641 27.6005 24.7578 28.0856 24.7578H62.104C64.2064 24.7578 65.9173 26.4688 65.9173 28.5711V44.1242C65.9173 46.2266 64.2064 47.9375 62.104 47.9375H47.9056C47.3056 47.3879 46.5028 47.0516 45.6216 47.0516C44.7403 47.0516 43.9376 47.3879 43.3376 47.9375H27.6028C25.5005 47.9375 23.7896 46.2266 23.7896 44.1242V28.5711C23.7896 26.4688 25.5005 24.7578 27.6028 24.7578H29.8399C30.3251 24.7578 30.7188 24.3641 30.7188 23.8789C30.7188 23.3938 30.3251 23 29.8399 23H27.6028C24.5313 23 22.0317 25.4984 22.0317 28.5711V44.1242C22.0317 47.1957 24.5313 49.6953 27.6028 49.6953H42.3274C42.2806 49.9145 42.2571 50.1418 42.2571 50.3738V57.3102C42.2571 57.7953 42.6509 58.1891 43.136 58.1891C43.6212 58.1891 44.0149 57.7953 44.0149 57.3102V50.3738C44.0149 49.5113 44.7356 48.8094 45.6216 48.8094C46.5075 48.8094 47.2282 49.5113 47.2282 50.3738V62.7523C47.2282 63.2375 47.622 63.6312 48.1071 63.6312C48.5923 63.6312 48.986 63.2375 48.986 62.7523V58.7305C49.2064 58.1023 49.8157 57.6711 50.5048 57.6711C51.3907 57.6711 52.1114 58.373 52.1114 59.2379C52.1114 60.0793 52.1208 61.8887 52.1231 62.7547C52.1243 63.2387 52.5181 63.6312 53.0021 63.6312H53.0044C53.4896 63.6301 53.8821 63.2352 53.881 62.75L53.8739 60.6582C53.8915 59.8098 54.604 59.1242 55.4782 59.1242C56.3642 59.1242 57.0849 59.8262 57.0849 60.6898V62.3094V62.7687C57.0849 63.2539 57.4786 63.6477 57.9638 63.6477C58.4489 63.6477 58.8427 63.2539 58.8427 62.7687V62.3094C58.8427 61.4855 59.5142 60.8152 60.3392 60.8152C61.1642 60.8152 61.8356 61.4855 61.8356 62.3094V69.0406C61.8356 69.5258 62.2294 69.9195 62.7146 69.9195C63.1997 69.9195 63.5935 69.5258 63.5935 69.0406V62.3094C63.5935 60.5164 62.1333 59.0574 60.3392 59.0574C59.7146 59.0574 59.131 59.2344 58.6341 59.5402C58.1595 58.2723 56.9231 57.3664 55.4771 57.3664C54.7821 57.3664 54.1353 57.5762 53.5985 57.9348C53.0841 56.7488 51.8911 55.9156 50.5036 55.9156C49.9634 55.9156 49.4454 56.0445 48.9849 56.2754V50.3762C48.9849 50.143 48.9603 49.9168 48.9146 49.6977H62.104C65.1755 49.6977 67.6751 47.1992 67.6751 44.1266V28.5711C67.6751 25.4984 65.1767 23 62.104 23Z" fill="black"/>
<path d="M61.4431 75.9895H61.0681C61.1606 74.9289 61.531 73.9199 62.1556 73.0457C63.0966 71.7273 63.5935 70.1746 63.5935 68.5551C63.5935 68.0699 63.1997 67.6762 62.7146 67.6762C62.2294 67.6762 61.8356 68.0699 61.8356 68.5551C61.8356 69.8066 61.4513 71.0055 60.7247 72.0238C59.8856 73.1992 59.4005 74.5598 59.3044 75.9895H45.3884C45.1599 74.5762 44.3899 73.2801 43.2239 72.4059L42.7376 72.0508C40.8673 70.6855 39.7505 68.4871 39.7505 66.1715V62.7953C39.7505 61.593 40.729 60.6145 41.9313 60.6145H42.2583V66.1C42.2583 66.5852 42.6521 66.9789 43.1372 66.9789C43.6224 66.9789 44.0161 66.5852 44.0161 66.1V56.7227C44.0161 56.2375 43.6224 55.8438 43.1372 55.8438C42.6521 55.8438 42.2583 56.2375 42.2583 56.7227V58.8566H41.9313C39.7599 58.8566 37.9927 60.6238 37.9927 62.7953V66.1715C37.9927 69.0473 39.379 71.7754 41.7017 73.4711L42.1798 73.8203C42.8958 74.357 43.3962 75.134 43.6013 75.9918H43.3095C41.9208 75.9918 40.7899 77.1215 40.7899 78.5113V80.4824C40.7899 81.8723 41.9208 83.002 43.3095 83.002H61.4454C62.8353 83.002 63.9649 81.8723 63.9649 80.4824V78.5113C63.9626 77.1203 62.8329 75.9895 61.4431 75.9895ZM62.2048 80.4801C62.2048 80.8996 61.8626 81.2418 61.4431 81.2418H43.3071C42.8876 81.2418 42.5454 80.8996 42.5454 80.4801V78.509C42.5454 78.0895 42.8876 77.7473 43.3071 77.7473H61.4431C61.8626 77.7473 62.2048 78.0895 62.2048 78.509V80.4801Z" fill="black"/>
<path d="M20.0103 50.1898L18.6216 51.6089C18.2817 51.9558 18.2876 52.5125 18.6356 52.8523C18.8067 53.0199 19.0282 53.1031 19.2497 53.1031C19.4782 53.1031 19.7056 53.0152 19.8778 52.8394L21.2665 51.4203C21.6064 51.0734 21.6005 50.5167 21.2524 50.1769C20.9067 49.8371 20.3501 49.8429 20.0103 50.1898Z" fill="black"/>
<path d="M24.0181 51.7348C23.5482 51.6141 23.0689 51.8977 22.9482 52.3676L22.4548 54.2907C22.3341 54.7606 22.6177 55.2399 23.0876 55.3606C23.1614 55.3794 23.2341 55.3887 23.3068 55.3887C23.6982 55.3887 24.0556 55.1251 24.1575 54.7278L24.6509 52.8048C24.7716 52.3348 24.488 51.8555 24.0181 51.7348Z" fill="black"/>
<path d="M19.6376 47.447C19.5064 46.9794 19.0212 46.7064 18.5548 46.8376L16.6423 47.372C16.1747 47.5032 15.9017 47.9872 16.0329 48.4548C16.1419 48.8427 16.4946 49.097 16.879 49.097C16.9575 49.097 17.0372 49.0864 17.1157 49.0642L19.0282 48.5298C19.4958 48.3997 19.7689 47.9146 19.6376 47.447Z" fill="black"/>
<path d="M69.6966 50.1898C69.3567 49.8429 68.8001 49.8371 68.4532 50.1769C68.1063 50.5167 68.1005 51.0734 68.4403 51.4203L69.829 52.8394C70.0013 53.0152 70.2286 53.1031 70.4571 53.1031C70.6786 53.1031 70.9013 53.0199 71.0712 52.8523C71.4181 52.5125 71.4239 51.9558 71.0841 51.6089L69.6966 50.1898Z" fill="black"/>
<path d="M66.7598 52.3676C66.6391 51.8977 66.161 51.6141 65.6899 51.7348C65.22 51.8555 64.9364 52.3348 65.0571 52.8048L65.5505 54.7278C65.6524 55.1251 66.0098 55.3887 66.4012 55.3887C66.4739 55.3887 66.5465 55.3794 66.6204 55.3606C67.0903 55.2399 67.3739 54.7618 67.2532 54.2907L66.7598 52.3676Z" fill="black"/>
<path d="M73.0644 47.372L71.1519 46.8376C70.6844 46.7064 70.1992 46.9794 70.0691 47.447C69.939 47.9146 70.2109 48.3997 70.6785 48.5298L72.591 49.0642C72.6695 49.0864 72.7492 49.097 72.8277 49.097C73.2121 49.097 73.5648 48.8427 73.6738 48.4548C73.8051 47.9872 73.532 47.5032 73.0644 47.372Z" fill="black"/>
<path d="M32.4954 27.9309H34.8954C35.1192 27.9309 35.3091 28.0973 35.3384 28.3187L35.7989 33.3168V33.318L36.0825 36.4047C36.1435 37.0715 36.4927 37.641 36.9989 38.0008C36.5126 38.923 36.5173 39.9977 37.0259 40.9281C37.3024 41.4344 37.6962 41.8387 38.1661 42.1164C37.8825 42.5605 37.7173 43.0879 37.7173 43.6539C37.7173 45.2348 39.004 46.5227 40.5849 46.5227C42.1657 46.5227 43.4536 45.2359 43.4536 43.6539C43.4536 43.2602 43.3739 42.8852 43.2298 42.543H47.8868C47.7427 42.8852 47.663 43.2602 47.663 43.6539C47.663 45.2348 48.9497 46.5227 50.5306 46.5227C52.1114 46.5227 53.3993 45.2359 53.3993 43.6539C53.3993 42.0719 52.1126 40.7852 50.5306 40.7852H39.7505C39.2501 40.7852 38.8083 40.5227 38.5681 40.0844C38.3278 39.6449 38.3454 39.1316 38.6161 38.7109L38.8106 38.4074H49.6587C50.7544 38.4074 51.6708 37.6211 51.8384 36.5383L52.9915 29.0594C53.0302 28.8062 52.9563 28.5484 52.7899 28.3527C52.6235 28.157 52.3798 28.0457 52.1231 28.0457H37.0763C36.9134 26.9723 35.9899 26.1719 34.8966 26.1719H32.4966C32.0114 26.1719 31.6177 26.5656 31.6177 27.0508C31.6177 27.5359 32.0103 27.9309 32.4954 27.9309ZM45.6931 34.1055L45.5548 36.6484H42.645L42.5067 34.1055H45.6931ZM42.4095 32.3477L42.2712 29.8047H45.9274L45.7892 32.3477H42.4095ZM40.8837 36.6484H38.2786C38.0466 36.6484 37.8544 36.4738 37.8333 36.2418L37.6364 34.1043H40.7442L40.8837 36.6484ZM41.6958 43.6527C41.6958 44.2656 41.1978 44.7637 40.5849 44.7637C39.972 44.7637 39.4751 44.2656 39.4751 43.6527C39.4751 43.0398 39.9731 42.5418 40.5849 42.5418C41.1966 42.5418 41.6958 43.041 41.6958 43.6527ZM50.5306 44.7637C49.9188 44.7637 49.4208 44.2656 49.4208 43.6527C49.4208 43.0398 49.9188 42.5418 50.5306 42.5418C51.1423 42.5418 51.6415 43.0398 51.6415 43.6527C51.6415 44.2656 51.1435 44.7637 50.5306 44.7637ZM49.6587 36.6484H47.3138L47.4521 34.1055H50.4333L50.0993 36.2699C50.0665 36.4891 49.8813 36.6484 49.6587 36.6484ZM50.7052 32.3477H47.5481L47.6864 29.8047H51.0966L50.7052 32.3477ZM40.5099 29.8035L40.6481 32.3465H37.4735L37.2392 29.8035H40.5099Z" fill="black"/>
</g>
<defs>
<clipPath id="clip0_1291_3978">
<rect width="57.7078" height="60" fill="white" transform="translate(16 23)"/>
</clipPath>
</defs>
</svg>
