<svg width="82" height="85" viewBox="0 0 82 85" fill="none" xmlns="http://www.w3.org/2000/svg">
<circle cx="38" cy="38" r="38" fill="#EEEEEE"/>
<g clip-path="url(#clip0_1291_4017)">
<path d="M81.9089 33.2477C81.9077 33.0942 81.8685 32.9396 81.784 32.798L77.7322 25.9719C77.3765 25.3724 76.7222 25 76.025 25H42.9261C42.2301 25 41.5758 25.3712 41.2201 25.9695L37.1516 32.798C37.0672 32.9396 37.0279 33.0942 37.0267 33.2489C37.0267 33.2512 37.0255 33.2536 37.0255 33.2548V54.0566L21.4462 68.3381C21.1654 68.5951 21.0036 68.9603 21.0001 69.341C20.9965 69.7216 21.1535 70.0892 21.4295 70.3521L36.4462 84.6205C36.7079 84.8691 37.0481 85 37.3943 85C37.5775 85 37.7619 84.9631 37.938 84.8882C38.4447 84.6705 38.7719 84.1744 38.7719 83.6224V76.8689C42.3646 76.2741 45.5658 75.157 48.3591 73.5272H79.6356C80.8894 73.5272 81.9089 72.5077 81.9089 71.2539V33.2548C81.9089 33.2524 81.9089 33.2501 81.9089 33.2477ZM62.7881 26.7844L63.7624 32.3614H55.7705L56.6484 26.7844H62.7881ZM55.6182 34.147H63.9313V46.0516L60.3077 43.3512C60.1495 43.2334 59.9615 43.1751 59.7747 43.1751C59.5868 43.1751 59.4 43.2346 59.2418 43.3512L55.6182 46.0504V34.147ZM42.7524 26.8832C42.7881 26.8225 42.8547 26.7844 42.9261 26.7844H54.8426L53.9634 32.3626H39.4869L42.7524 26.8832ZM80.1245 71.2539C80.1245 71.5239 79.9056 71.7428 79.6356 71.7428H50.9929C52.386 70.6555 53.6529 69.4135 54.7866 68.0169C57.9677 64.1018 60.1483 59.0245 61.4545 52.4946C61.5366 52.083 61.3201 51.6679 60.9334 51.5013C60.548 51.3336 60.0971 51.4585 59.8521 51.8011C55.9013 57.334 47.5597 61.0469 41.6651 62.3555C41.1845 62.4625 40.8811 62.9384 40.987 63.4202C41.0929 63.9008 41.5687 64.2053 42.0517 64.0983C47.1754 62.961 55.1852 59.956 58.7814 55.9898C57.5228 60.4128 55.749 64.0031 53.4007 66.8927C49.6855 71.4656 44.4214 74.2684 37.7536 75.2201C37.3134 75.2831 36.9875 75.6602 36.9875 76.104V82.6743L22.9736 69.3588L36.9875 56.5108V63.3476C36.9875 63.8401 37.3872 64.2398 37.8797 64.2398H37.9106H37.9165H37.9237C39.4155 64.2386 40.8466 64.1708 42.1802 64.0388C42.6703 63.99 43.0284 63.5534 42.9796 63.0633C42.9308 62.572 42.4942 62.2139 42.0041 62.2639C40.9941 62.3638 39.9223 62.4256 38.8088 62.4471V34.147H53.8338V47.8289C53.8338 48.1668 54.0241 48.4749 54.3263 48.626C54.6272 48.7771 54.9889 48.7449 55.2589 48.5439L59.7747 45.1796L64.2906 48.5439C64.4476 48.6605 64.6344 48.72 64.8235 48.72C64.9603 48.72 65.0971 48.689 65.2232 48.6248C65.5254 48.4737 65.7157 48.1644 65.7157 47.8277V34.147H78.145C78.6375 34.147 79.0372 33.7473 79.0372 33.2548C79.0372 32.7623 78.6375 32.3626 78.145 32.3626H65.5742L64.5999 26.7844H76.025C76.0952 26.7844 76.1618 26.8225 76.1987 26.8832L79.4512 32.3626H77.2539C76.7614 32.3626 76.3617 32.7623 76.3617 33.2548C76.3617 33.7473 76.7614 34.147 77.2539 34.147H80.1245V71.2539Z" fill="black"/>
</g>
<defs>
<clipPath id="clip0_1291_4017">
<rect width="60.9089" height="60" fill="white" transform="translate(21 25)"/>
</clipPath>
</defs>
</svg>
