<svg width="31" height="31" viewBox="0 0 31 31" fill="none" xmlns="http://www.w3.org/2000/svg">
<path d="M15.518 3.08398C8.60429 3.08398 3 8.67478 3 15.5719C3 20.8619 6.30023 25.3784 10.9577 27.1972C10.8473 26.2081 10.7494 24.6948 10.9984 23.6167C11.2271 22.6401 12.4668 17.411 12.4668 17.411C12.4668 17.411 12.0917 16.6578 12.0917 15.5555C12.0917 13.8218 13.1035 12.5241 14.3558 12.5241C15.4248 12.5241 15.9425 13.3218 15.9425 14.282C15.9425 15.3523 15.2611 16.9555 14.9064 18.4407C14.6088 19.6822 15.5305 20.6947 16.7585 20.6947C18.9819 20.6947 20.6947 18.3548 20.6947 14.9773C20.6947 11.9983 18.541 9.90685 15.4655 9.90685C11.9045 9.90685 9.81583 12.5765 9.81583 15.3226C9.81583 16.3969 10.2278 17.5524 10.7462 18.1751C10.848 18.3009 10.8606 18.411 10.8316 18.5376C10.7376 18.9282 10.5254 19.7868 10.4847 19.9579C10.4275 20.19 10.3053 20.2384 10.0649 20.129C8.50639 19.4087 7.52353 17.1297 7.52353 15.2906C7.52353 11.3561 10.3954 7.73413 15.796 7.73413C20.1363 7.73413 23.5133 10.8264 23.5133 14.9445C23.5133 19.254 20.7926 22.7205 17.0076 22.7205C15.7389 22.7205 14.5477 22.065 14.1279 21.2838L13.3447 24.2503C13.0636 25.337 12.2961 26.6996 11.7784 27.5262C12.9532 27.884 14.189 28.084 15.4859 28.084C22.3879 28.084 28 22.4971 28 15.5961C28 8.699 22.3871 3.11211 15.4859 3.11211L15.518 3.08398Z" fill="#939393"/>
</svg>
