<svg width="95" height="76" viewBox="0 0 95 76" fill="none" xmlns="http://www.w3.org/2000/svg">
<circle cx="38.5" cy="38" r="38" fill="#EEEEEE"/>
<g clip-path="url(#clip0_1291_4041)">
<path d="M90.9441 25.3849L38.7001 16.0647C36.4106 15.6529 34.1867 17.2543 33.7892 19.5323L30.4241 38.8352H25.6173C23.3464 38.8352 21.5 40.683 21.5 42.9525V71.8833C21.5 74.1528 23.3478 76.0006 25.6173 76.0006H78.9057C81.1766 76.0006 83.023 74.1528 83.023 71.8833V61.7111C84.5488 61.9832 86.0233 62.3052 87.4338 61.4604C88.4923 60.8264 89.2516 59.7351 89.4639 58.517L94.3776 30.3299C94.7822 28.012 93.2421 25.7937 90.9441 25.3849ZM36.1071 19.9369C36.2838 18.9254 37.2654 18.1988 38.2869 18.3812L90.531 27.7C91.5568 27.8823 92.242 28.881 92.0611 29.9253L91.2505 34.5783L35.2951 24.5984L36.1071 19.9369ZM80.6708 71.8833C80.6708 72.8563 79.8787 73.6484 78.9057 73.6484H25.6173C24.6442 73.6484 23.8521 72.8563 23.8521 71.8833V42.9525C23.8521 41.9794 24.6442 41.1873 25.6173 41.1873H78.9057C79.8787 41.1873 80.6708 41.9794 80.6708 42.9525V71.8833ZM87.1474 58.1124C86.7813 60.2052 84.4576 59.5755 83.023 59.3205V42.9525C83.023 40.683 81.1752 38.8352 78.9057 38.8352H32.8133L34.8905 26.9164L38.2983 27.5247L90.8444 36.8976L87.1474 58.1124Z" fill="black"/>
<path d="M49.2185 68.9434H42.4541C41.8045 68.9434 41.2773 68.4163 41.2773 67.7666C41.2773 67.117 41.8045 66.5898 42.4541 66.5898H49.2185C49.8681 66.5898 50.3952 67.117 50.3952 67.7666C50.3938 68.4163 49.8681 68.9434 49.2185 68.9434Z" fill="black"/>
<path d="M36.3649 68.9434H29.6006C28.951 68.9434 28.4238 68.4163 28.4238 67.7666C28.4238 67.117 28.951 66.5898 29.6006 66.5898H36.3649C37.0146 66.5898 37.5417 67.117 37.5417 67.7666C37.5417 68.4163 37.0146 68.9434 36.3649 68.9434Z" fill="black"/>
<path d="M62.0703 68.9434H55.3059C54.6563 68.9434 54.1292 68.4163 54.1292 67.7666C54.1292 67.117 54.6563 66.5898 55.3059 66.5898H62.0703C62.7199 66.5898 63.247 67.117 63.247 67.7666C63.247 68.4163 62.7199 68.9434 62.0703 68.9434Z" fill="black"/>
<path d="M74.9223 68.9434H68.158C67.5083 68.9434 66.9812 68.4163 66.9812 67.7666C66.9812 67.117 67.5083 66.5898 68.158 66.5898H74.9223C75.572 66.5898 76.0991 67.117 76.0991 67.7666C76.0991 68.4163 75.572 68.9434 74.9223 68.9434Z" fill="black"/>
<path d="M39.4053 62.8404H30.8843C29.2631 62.8404 27.9424 61.5211 27.9424 59.8984V56.5191C27.9424 54.8978 29.2616 53.5771 30.8843 53.5771H39.4053C41.0266 53.5771 42.3472 54.8964 42.3472 56.5191V59.8984C42.3458 61.5197 41.0266 62.8404 39.4053 62.8404ZM30.8843 55.9307C30.5595 55.9307 30.2959 56.1943 30.2959 56.5191V59.8984C30.2959 60.2232 30.5595 60.4868 30.8843 60.4868H39.4053C39.7301 60.4868 39.9937 60.2232 39.9937 59.8984V56.5191C39.9937 56.1943 39.7301 55.9307 39.4053 55.9307H30.8843Z" fill="black"/>
</g>
<defs>
<clipPath id="clip0_1291_4041">
<rect width="72.9431" height="60" fill="white" transform="translate(21.5 16)"/>
</clipPath>
</defs>
</svg>
