<svg width="31" height="31" viewBox="0 0 31 31" fill="none" xmlns="http://www.w3.org/2000/svg">
<path fill-rule="evenodd" clip-rule="evenodd" d="M3 15.584C3 8.68034 8.59635 3.08398 15.5 3.08398C22.4036 3.08398 28 8.68034 28 15.584C28 22.4876 22.4036 28.084 15.5 28.084C8.59635 28.084 3 22.4876 3 15.584ZM10.564 20.584H13.0026V12.7361H10.564V20.584ZM10.5 10.5521C10.5 11.227 10.998 11.7727 11.7683 11.7727C12.5862 11.7727 13.0829 11.227 13.0829 10.5521C13.0679 9.86337 12.5862 9.33398 11.7996 9.33398C11.0131 9.33398 10.5 9.86337 10.5 10.5521ZM19.4706 20.584H21.9093V15.9437C21.9093 13.633 20.7063 12.5579 19.1018 12.5579C17.7859 12.5579 16.9994 13.3131 16.6782 13.825H16.6293L16.5176 12.7348H14.3989C14.4315 13.4398 14.4628 14.259 14.4628 15.2387V20.5827H16.9028V16.0579C16.9028 15.8333 16.9191 15.6075 16.9843 15.4482C17.1612 15.0004 17.5614 14.535 18.235 14.535C19.1169 14.535 19.4706 15.2224 19.4706 16.2348V20.584Z" fill="#939393"/>
</svg>
