<svg width="31" height="31" viewBox="0 0 31 31" fill="none" xmlns="http://www.w3.org/2000/svg">
<path d="M15.5 3.08398C8.5971 3.08398 3 8.68108 3 15.584C3 22.4869 8.5971 28.084 15.5 28.084C22.4029 28.084 28 22.4869 28 15.584C28 8.68108 22.4029 3.08398 15.5 3.08398ZM21.5073 12.5064C21.5156 12.6376 21.5156 12.7743 21.5156 12.9082C21.5156 17.0042 18.3962 21.7224 12.6959 21.7224C10.9381 21.7224 9.30859 21.2118 7.93583 20.3329C8.18694 20.3608 8.4269 20.3719 8.68359 20.3719C10.1345 20.3719 11.4682 19.8809 12.5312 19.0494C11.1696 19.0215 10.0257 18.1286 9.63504 16.9009C10.1122 16.9707 10.5419 16.9707 11.0329 16.8451C10.3318 16.7027 9.70166 16.3219 9.24949 15.7675C8.79731 15.2131 8.55102 14.5193 8.55246 13.8039V13.7648C8.96261 13.9964 9.44531 14.1387 9.95034 14.1582C9.52579 13.8753 9.17762 13.4919 8.93669 13.0422C8.69577 12.5925 8.56954 12.0903 8.5692 11.5801C8.5692 11.0025 8.71987 10.4752 8.99051 10.0176C9.7687 10.9755 10.7398 11.759 11.8406 12.3171C12.9414 12.8752 14.1473 13.1955 15.38 13.257C14.942 11.1504 16.5156 9.44559 18.4074 9.44559C19.3002 9.44559 20.1038 9.81948 20.6702 10.4222C21.3705 10.291 22.0402 10.0287 22.6373 9.67718C22.4057 10.3943 21.9202 10.9997 21.2757 11.382C21.9007 11.315 22.5033 11.142 23.0614 10.8993C22.6401 11.5187 22.1127 12.0684 21.5073 12.5064Z" fill="#939393"/>
</svg>
